<svg width="781" height="574" viewBox="0 0 781 574" fill="none" xmlns="http://www.w3.org/2000/svg">
<path d="M151 359L151 535" stroke="#450AC0" stroke-width="50" stroke-linecap="round"/>
<path d="M629 359L629 535" stroke="#450AC0" stroke-width="50" stroke-linecap="round"/>
<path fill-rule="evenodd" clip-rule="evenodd" d="M674 343.358V520V525.468C674 533.534 676.729 540.964 681.314 546.883C690.531 562.513 707.541 573 727 573C756.271 573 780 549.271 780 520C780 518.289 779.919 516.596 779.76 514.927C779.919 513.306 780 511.662 780 510V384C780 361.217 764.762 341.993 743.922 335.964C740.006 150.451 589.075 1 403.117 1H377.883C191.925 1 40.9944 150.451 37.078 335.964C16.2378 341.993 1 361.217 1 384L0.999994 510C0.999994 510.992 1.02891 511.978 1.08594 512.956C1.0289 513.964 1 514.978 1 516C1 516.67 1.01242 517.336 1.03704 518C1.01242 518.664 1 519.33 1 520C1 523.922 1.42593 527.744 2.23404 531.423L2 531.5L2.42951 532.279C7.96828 555.629 28.9555 573 54 573C73.4591 573 90.4688 562.513 99.686 546.883C104.271 540.964 107 533.534 107 525.468V520V516V343.358C107 192.78 228.437 71 377.883 71H403.117C552.563 71 674 192.78 674 343.358Z" fill="url(#paint0_linear_906_22)"/>
<path d="M681.314 546.883L681.745 546.629L681.729 546.602L681.709 546.577L681.314 546.883ZM779.76 514.927L779.263 514.878L779.258 514.926L779.263 514.974L779.76 514.927ZM743.922 335.964L743.422 335.974L743.43 336.342L743.783 336.444L743.922 335.964ZM37.078 335.964L37.2169 336.444L37.5701 336.342L37.5779 335.974L37.078 335.964ZM1 384L1.5 384V384H1ZM0.999994 510L0.499994 510V510H0.999994ZM1.08594 512.956L1.58514 512.985L1.58676 512.956L1.58509 512.927L1.08594 512.956ZM1.03704 518L1.5367 518.019L1.53738 518L1.5367 517.981L1.03704 518ZM2.23404 531.423L2.3908 531.898L2.81918 531.756L2.7224 531.315L2.23404 531.423ZM2 531.5L1.84324 531.025L1.2712 531.214L1.56221 531.742L2 531.5ZM2.42951 532.279L2.91601 532.163L2.90026 532.097L2.8673 532.037L2.42951 532.279ZM99.686 546.883L99.2907 546.577L99.2714 546.602L99.2553 546.629L99.686 546.883ZM674 520H674.5V343.358H674H673.5V520H674ZM674 525.468H674.5V520H674H673.5V525.468H674ZM681.314 546.883L681.709 546.577C677.19 540.742 674.5 533.42 674.5 525.468H674H673.5C673.5 533.649 676.268 541.185 680.919 547.189L681.314 546.883ZM727 573V572.5C707.725 572.5 690.876 562.113 681.745 546.629L681.314 546.883L680.883 547.137C690.187 562.913 707.357 573.5 727 573.5V573ZM780 520H779.5C779.5 548.995 755.995 572.5 727 572.5V573V573.5C756.547 573.5 780.5 549.547 780.5 520H780ZM779.76 514.927L779.263 514.974C779.42 516.628 779.5 518.305 779.5 520H780H780.5C780.5 518.273 780.418 516.565 780.258 514.88L779.76 514.927ZM780 510H779.5C779.5 511.646 779.42 513.273 779.263 514.878L779.76 514.927L780.258 514.975C780.418 513.338 780.5 511.679 780.5 510H780ZM780 384H779.5V510H780H780.5V384H780ZM743.922 335.964L743.783 336.444C764.415 342.413 779.5 361.446 779.5 384H780H780.5C780.5 360.989 765.109 341.573 744.061 335.484L743.922 335.964ZM403.117 1V1.5C588.801 1.5 739.511 150.73 743.422 335.974L743.922 335.964L744.422 335.953C740.5 150.171 589.35 0.5 403.117 0.5V1ZM377.883 1V1.5H403.117V1V0.5H377.883V1ZM37.078 335.964L37.5779 335.974C41.4886 150.73 192.199 1.5 377.883 1.5V1V0.5C191.65 0.5 40.5002 150.171 36.5781 335.953L37.078 335.964ZM1 384H1.5C1.5 361.446 16.5849 342.413 37.2169 336.444L37.078 335.964L36.939 335.484C15.8908 341.573 0.5 360.989 0.5 384H1ZM0.999994 510L1.49999 510L1.5 384L1 384L0.5 384L0.499994 510L0.999994 510ZM1.08594 512.956L1.58509 512.927C1.52863 511.959 1.49999 510.983 1.49999 510H0.999994H0.499994C0.499994 511.002 0.529191 511.998 0.586787 512.985L1.08594 512.956ZM1 516H1.5C1.5 514.988 1.52864 513.982 1.58514 512.985L1.08594 512.956L0.586739 512.928C0.529171 513.945 0.5 514.969 0.5 516H1ZM1.03704 518L1.5367 517.981C1.5123 517.324 1.5 516.663 1.5 516H1H0.5C0.5 516.676 0.512534 517.349 0.537383 518.019L1.03704 518ZM1 520H1.5C1.5 519.337 1.5123 518.676 1.5367 518.019L1.03704 518L0.537383 517.981C0.512534 518.651 0.5 519.324 0.5 520H1ZM2.23404 531.423L2.7224 531.315C1.92197 527.672 1.5 523.885 1.5 520H1H0.5C0.5 523.958 0.929879 527.816 1.74568 531.53L2.23404 531.423ZM2 531.5L2.15676 531.975L2.3908 531.898L2.23404 531.423L2.07728 530.948L1.84324 531.025L2 531.5ZM2.42951 532.279L2.8673 532.037L2.43779 531.258L2 531.5L1.56221 531.742L1.99171 532.52L2.42951 532.279ZM54 573V572.5C29.1925 572.5 8.40252 555.293 2.91601 532.163L2.42951 532.279L1.943 532.394C7.53403 555.965 28.7186 573.5 54 573.5V573ZM99.686 546.883L99.2553 546.629C90.1243 562.113 73.2749 572.5 54 572.5V573V573.5C73.6433 573.5 90.8133 562.913 100.117 547.137L99.686 546.883ZM107 525.468H106.5C106.5 533.42 103.81 540.742 99.2907 546.577L99.686 546.883L100.081 547.189C104.732 541.185 107.5 533.649 107.5 525.468H107ZM107 520H106.5V525.468H107H107.5V520H107ZM107 516H106.5V520H107H107.5V516H107ZM107 343.358H106.5V516H107H107.5V343.358H107ZM377.883 71V70.5C228.159 70.5 106.5 192.506 106.5 343.358H107H107.5C107.5 193.054 228.716 71.5 377.883 71.5V71ZM403.117 71V70.5H377.883V71V71.5H403.117V71ZM674 343.358H674.5C674.5 192.506 552.841 70.5 403.117 70.5V71V71.5C552.284 71.5 673.5 193.054 673.5 343.358H674Z" fill="black"/>
<defs>
<linearGradient id="paint0_linear_906_22" x1="390.5" y1="1" x2="390.5" y2="573" gradientUnits="userSpaceOnUse">
<stop stop-color="#D6419A"/>
<stop offset="1" stop-color="#450AC0"/>
</linearGradient>
</defs>
</svg>
