<svg width="420" height="412" viewBox="0 0 420 412" fill="none" xmlns="http://www.w3.org/2000/svg">
<path d="M305.052 262.051C346.148 262.051 379.368 295.583 379.368 336.829C379.368 378.075 346.147 411.607 305.052 411.607C267.724 411.607 236.895 383.941 231.556 347.958H188.445C183.106 383.941 152.276 411.607 114.947 411.607C73.8519 411.607 40.632 378.075 40.6318 336.829C40.6318 295.583 73.8518 262.051 114.947 262.051C152.275 262.051 183.106 289.716 188.445 325.699H231.556C236.895 289.716 267.724 262.051 305.052 262.051ZM114.947 278.051C82.793 278.051 56.6318 304.314 56.6318 336.829C56.632 369.343 82.7931 395.607 114.947 395.607C147.102 395.607 173.264 369.344 173.264 336.829C173.264 304.314 147.102 278.051 114.947 278.051ZM305.052 278.051C272.897 278.051 246.736 304.314 246.736 336.829C246.736 369.343 272.898 395.607 305.052 395.607C337.206 395.607 363.368 369.344 363.368 336.829C363.368 304.314 337.206 278.051 305.052 278.051ZM397.895 201.047C403.757 201.047 409.38 203.392 413.525 207.566C417.671 211.741 420 217.402 420 223.305C420 229.209 417.671 234.871 413.525 239.046C409.38 243.22 403.757 245.565 397.895 245.565H22.1055C16.2429 245.565 10.6201 243.22 6.47461 239.046C2.32907 234.871 0 229.209 0 223.305C7.77511e-05 217.402 2.32917 211.741 6.47461 207.566C10.6202 203.392 16.2428 201.047 22.1055 201.047H397.895ZM118.233 7.03979C120.012 1.30886 126.403 -1.57571 131.878 0.880615L206.75 34.4714C209.378 35.6504 212.386 35.6397 215.005 34.4412L288.08 0.993896C293.564 -1.51599 300.004 1.36222 301.792 7.12183L353.685 174.335H66.3164L118.233 7.03979Z" fill="url(#paint0_linear_904_3)"/>
<defs>
<linearGradient id="paint0_linear_904_3" x1="210" y1="-0.000244141" x2="210" y2="411.608" gradientUnits="userSpaceOnUse">
<stop stop-color="#D6419A"/>
<stop offset="1" stop-color="#450AC0"/>
</linearGradient>
</defs>
</svg>
